<svg xmlns="http://www.w3.org/2000/svg" xmlns:oryx="http://oryx-editor.org" id="_59E59527-E18B-4832-AC4E-72BFD2807E6B" width="743" height="250" xmlns:xlink="http://www.w3.org/1999/xlink" xmlns:svg="http://www.w3.org/2000/svg"><defs><marker id="_C8C262EB-5C33-4923-89E2-A81261726C4Estart" refX="1" refY="5" markerUnits="userSpaceOnUse" markerWidth="17" markerHeight="11" orient="auto" fill="#000000" stroke="#000000"> 	  		<path id="_C8C262EB-5C33-4923-89E2-A81261726C4Econditional" d="M 0 5 L 8 0 L 16 5 L 8 10 L 0 5" fill="white" stroke="#000000" stroke-width="1" display="none"/> 			<path id="_C8C262EB-5C33-4923-89E2-A81261726C4Edefault" d="M 5 0 L 11 10" fill="white" stroke="#000000" stroke-width="1" display="none"/> 	  	</marker><marker id="_C8C262EB-5C33-4923-89E2-A81261726C4Eend" refX="15" refY="6" markerUnits="userSpaceOnUse" markerWidth="15" markerHeight="12" orient="auto" fill="#000000" stroke="#000000"> 	  		<path id="_C8C262EB-5C33-4923-89E2-A81261726C4Eframe2" d="M 0 1 L 15 6 L 0 11z" fill="#000000" stroke="#000000" stroke-linejoin="round" stroke-width="2"/> 	  	</marker><marker id="_29B51CF9-7134-45AC-A5F7-3B0CF2E3793Dstart" refX="1" refY="5" markerUnits="userSpaceOnUse" markerWidth="17" markerHeight="11" orient="auto" fill="#000000" stroke="#000000"> 	  		<path id="_29B51CF9-7134-45AC-A5F7-3B0CF2E3793Dconditional" d="M 0 5 L 8 0 L 16 5 L 8 10 L 0 5" fill="white" stroke="#000000" stroke-width="1" display="none"/> 			<path id="_29B51CF9-7134-45AC-A5F7-3B0CF2E3793Ddefault" d="M 5 0 L 11 10" fill="white" stroke="#000000" stroke-width="1" display="none"/> 	  	</marker><marker id="_29B51CF9-7134-45AC-A5F7-3B0CF2E3793Dend" refX="15" refY="6" markerUnits="userSpaceOnUse" markerWidth="15" markerHeight="12" orient="auto" fill="#000000" stroke="#000000"> 	  		<path id="_29B51CF9-7134-45AC-A5F7-3B0CF2E3793Dframe2" d="M 0 1 L 15 6 L 0 11z" fill="#000000" stroke="#000000" stroke-linejoin="round" stroke-width="2"/> 	  	</marker><marker id="_0C37EE6D-15F5-42DD-A560-2AB38E2FDB51start" refX="1" refY="5" markerUnits="userSpaceOnUse" markerWidth="17" markerHeight="11" orient="auto" fill="#000000" stroke="#000000"> 	  		<path id="_0C37EE6D-15F5-42DD-A560-2AB38E2FDB51conditional" d="M 0 5 L 8 0 L 16 5 L 8 10 L 0 5" fill="white" stroke="#000000" stroke-width="1" display="none"/> 			<path id="_0C37EE6D-15F5-42DD-A560-2AB38E2FDB51default" d="M 5 0 L 11 10" fill="white" stroke="#000000" stroke-width="1" display="none"/> 	  	</marker><marker id="_0C37EE6D-15F5-42DD-A560-2AB38E2FDB51end" refX="15" refY="6" markerUnits="userSpaceOnUse" markerWidth="15" markerHeight="12" orient="auto" fill="#000000" stroke="#000000"> 	  		<path id="_0C37EE6D-15F5-42DD-A560-2AB38E2FDB51frame2" d="M 0 1 L 15 6 L 0 11z" fill="#000000" stroke="#000000" stroke-linejoin="round" stroke-width="2"/> 	  	</marker><marker id="_0ABE2B67-8499-4CF1-841A-14C337AE6C62start" refX="1" refY="5" markerUnits="userSpaceOnUse" markerWidth="17" markerHeight="11" orient="auto" fill="#000000" stroke="#000000"> 	  		<path id="_0ABE2B67-8499-4CF1-841A-14C337AE6C62conditional" d="M 0 5 L 8 0 L 16 5 L 8 10 L 0 5" fill="white" stroke="#000000" stroke-width="1" display="none"/> 			<path id="_0ABE2B67-8499-4CF1-841A-14C337AE6C62default" d="M 5 0 L 11 10" fill="white" stroke="#000000" stroke-width="1" display="none"/> 	  	</marker><marker id="_0ABE2B67-8499-4CF1-841A-14C337AE6C62end" refX="15" refY="6" markerUnits="userSpaceOnUse" markerWidth="15" markerHeight="12" orient="auto" fill="#000000" stroke="#000000"> 	  		<path id="_0ABE2B67-8499-4CF1-841A-14C337AE6C62frame2" d="M 0 1 L 15 6 L 0 11z" fill="#000000" stroke="#000000" stroke-linejoin="round" stroke-width="2"/> 	  	</marker></defs><g stroke="none" font-family="Verdana, sans-serif" font-size-adjust="none" font-style="normal" font-variant="normal" font-weight="normal" line-heigth="normal" font-size="12"><g class="stencils" transform="translate(15, 14)"><g class="me"/><g class="children"><g id="_9B90813F-481D-41EB-8701-E5AE8230E9B5" bpmn2nodeid="processStartEvent"><g class="stencils" transform="translate(105, 156)"><g class="me"><g pointer-events="fill" id="_9B90813F-481D-41EB-8701-E5AE8230E9B5">        <defs id="_9B90813F-481D-41EB-8701-E5AE8230E9B5__9B90813F-481D-41EB-8701-E5AE8230E9B5_5"> 		<radialGradient id="_9B90813F-481D-41EB-8701-E5AE8230E9B5background" cx="10%" cy="10%" r="100%" fx="10%" fy="10%"> 			<stop offset="0%" stop-color="#ffffff" stop-opacity="1" id="_9B90813F-481D-41EB-8701-E5AE8230E9B5__9B90813F-481D-41EB-8701-E5AE8230E9B5_6"/> 			<stop id="_9B90813F-481D-41EB-8701-E5AE8230E9B5fill_el" offset="100%" stop-color="#9acd32" stop-opacity="1"/> 		</radialGradient> 	</defs> 	     <circle id="_9B90813F-481D-41EB-8701-E5AE8230E9B5bg_frame" cx="15" cy="15" r="15" stroke="#000000" fill="url(#_9B90813F-481D-41EB-8701-E5AE8230E9B5background) white" stroke-width="1" style="stroke-dasharray: 5.5, 3"/>      <circle id="_9B90813F-481D-41EB-8701-E5AE8230E9B5frame" cx="15" cy="15" r="15" stroke="#000000" fill="none" stroke-width="1" display="inherit"/>  	<text font-size="11" id="_9B90813F-481D-41EB-8701-E5AE8230E9B5text_name" x="15" y="32" oryx:align="top center" stroke="black" stroke-width="0pt" letter-spacing="-0.01px" fill="#000000" text-anchor="middle" transform="rotate(0 15 32)" visibility="inherit" oryx:fontSize="11"/>   </g></g><g class="children" style="overflow:hidden"/><g class="edge"/></g><g class="controls"><g class="dockers"/><g class="magnets" transform="translate(105, 156)"><g pointer-events="all" display="none" transform="translate(7, 7)"><circle cx="8" cy="8" r="4" stroke="none" fill="red" fill-opacity="0.3"/></g></g></g></g><g id="_47FF9FB2-B49D-4E46-9E57-6F23C79FC540" bpmn2nodeid="_910AA77F-8946-4F5A-B9A9-67636C9A2CA8"><g class="stencils" transform="translate(675, 157)"><g class="me"><g pointer-events="fill" id="_47FF9FB2-B49D-4E46-9E57-6F23C79FC540">      <defs id="_47FF9FB2-B49D-4E46-9E57-6F23C79FC540__47FF9FB2-B49D-4E46-9E57-6F23C79FC540_5"> 		<radialGradient id="_47FF9FB2-B49D-4E46-9E57-6F23C79FC540background" cx="10%" cy="10%" r="100%" fx="10%" fy="10%"> 			<stop offset="0%" stop-color="#ffffff" stop-opacity="1" id="_47FF9FB2-B49D-4E46-9E57-6F23C79FC540__47FF9FB2-B49D-4E46-9E57-6F23C79FC540_6"/> 			<stop id="_47FF9FB2-B49D-4E46-9E57-6F23C79FC540fill_el" offset="100%" stop-color="#ff6347" stop-opacity="1"/> 		</radialGradient> 	</defs> 	     <circle id="_47FF9FB2-B49D-4E46-9E57-6F23C79FC540bg_frame" cx="14" cy="14" r="14" stroke="#000000" fill="url(#_47FF9FB2-B49D-4E46-9E57-6F23C79FC540background) white" stroke-width="3"/> 	<text font-size="11" id="_47FF9FB2-B49D-4E46-9E57-6F23C79FC540text_name" x="14" y="30" oryx:align="top center" stroke="black" stroke-width="0pt" letter-spacing="-0.01px" fill="#000000" text-anchor="middle" transform="rotate(0 14 30)" visibility="inherit" oryx:fontSize="11"/>   </g></g><g class="children" style="overflow:hidden"/><g class="edge"/></g><g class="controls"><g class="dockers"/><g class="magnets" transform="translate(675, 157)"><g pointer-events="all" display="none" transform="translate(6, 6)"><circle cx="8" cy="8" r="4" stroke="none" fill="red" fill-opacity="0.3"/></g></g></g></g><g id="_39A53118-4C70-41F9-A6F3-FAA30F7C6F6E" bpmn2nodeid="_621CEFFB-C490-4EB0-9139-B12720BF53D7"><g class="stencils" transform="translate(510, 131)"><g class="me"><g pointer-events="fill" oryx:minimumSize="50 40" id="_39A53118-4C70-41F9-A6F3-FAA30F7C6F6E">   	<defs id="_39A53118-4C70-41F9-A6F3-FAA30F7C6F6E__39A53118-4C70-41F9-A6F3-FAA30F7C6F6E_17"> 		<radialGradient id="_39A53118-4C70-41F9-A6F3-FAA30F7C6F6Ebackground" cx="10%" cy="10%" r="100%" fx="10%" fy="10%"> 			<stop offset="0%" stop-color="#ffffff" stop-opacity="1" id="_39A53118-4C70-41F9-A6F3-FAA30F7C6F6E__39A53118-4C70-41F9-A6F3-FAA30F7C6F6E_18"/> 			<stop id="_39A53118-4C70-41F9-A6F3-FAA30F7C6F6Efill_el" offset="100%" stop-color="#fafad2" stop-opacity="1"/> 		</radialGradient> 		<radialGradient id="_39A53118-4C70-41F9-A6F3-FAA30F7C6F6Eborderbackground" cx="10%" cy="10%" r="100%" fx="10%" fy="10%"> 			<stop offset="0%" stop-color="#ffffff" stop-opacity="1" id="_39A53118-4C70-41F9-A6F3-FAA30F7C6F6E__39A53118-4C70-41F9-A6F3-FAA30F7C6F6E_19"/> 			<stop id="_39A53118-4C70-41F9-A6F3-FAA30F7C6F6Efill_border" offset="100%" stop-color="#000000" stop-opacity="1" stroke="#000000"/> 		</radialGradient> 	</defs> 	 	<rect id="_39A53118-4C70-41F9-A6F3-FAA30F7C6F6Etext_frame" oryx:anchors="bottom top right left" x="1" y="1" width="94" height="79" rx="10" ry="10" stroke="none" stroke-width="0" fill="none"/> 	<rect id="_39A53118-4C70-41F9-A6F3-FAA30F7C6F6Ebg_frame" oryx:resize="vertical horizontal" x="0" y="0" width="100" height="80" rx="10" ry="10" stroke="#000000" stroke-width="1" fill="url(#_39A53118-4C70-41F9-A6F3-FAA30F7C6F6Ebackground) #ffffcc"/> 		<text font-size="12" id="_39A53118-4C70-41F9-A6F3-FAA30F7C6F6Etext_name" x="50" y="40" oryx:align="middle center" oryx:fittoelem="text_frame" stroke="black" text-anchor="middle" stroke-width="0pt" letter-spacing="-0.01px" fill="#000000" transform="rotate(0 50 40)" visibility="inherit" oryx:fontSize="12"><tspan x="50" y="40" dy="5">endNode_v1</tspan></text>     <g id="_39A53118-4C70-41F9-A6F3-FAA30F7C6F6EmanualTask" transform="scale(0.7,0.7) translate(8,8)" display="none">     	<path oryx:anchors="top left" id="_39A53118-4C70-41F9-A6F3-FAA30F7C6F6Eframe" style="opacity:1;fill:none;fill-opacity:1;stroke-width:1" d="M0.5,3.751l4.083-3.25c0,0,11.166,0.083,12.083,0.083s-2.417,2.917-1.5,2.917     s11.667,0,12.584,0c1.166,1.708-0.168,3.167-0.834,3.667s0.875,1.917-1,4.417c-0.75,0.25,0.75,1.875-1.333,3.333     c-1.167,0.583,0.583,1.542-1.25,2.833c-1.167,0-20.833,0.083-20.833,0.083l-2-1.333V3.751z" stroke="#000000"/> 		<path id="_39A53118-4C70-41F9-A6F3-FAA30F7C6F6Eframe2" oryx:anchors="top left" style="opacity:1;fill:none;stroke-width:2" d="M 13.5 7 L 27 7" stroke="#000000"/> 		<path id="_39A53118-4C70-41F9-A6F3-FAA30F7C6F6Eframe3" oryx:anchors="top left" style="opacity:1;fill:none;stroke-width:2" d="M 13.5 11 L 26 11" stroke="#000000"/> 		<path id="_39A53118-4C70-41F9-A6F3-FAA30F7C6F6Eframe4" oryx:anchors="top left" style="opacity:1;fill:none;stroke-width:1.5" d="M 14 14.5 L 25 14.5" stroke="#000000"/> 		<path id="_39A53118-4C70-41F9-A6F3-FAA30F7C6F6Eframe5" oryx:anchors="top left" style="opacity:1;fill:none;stroke-width:1.5" d="M 8.2 3.1 L 15 3.1" stroke="#000000"/> 	</g> 	 	<g id="_39A53118-4C70-41F9-A6F3-FAA30F7C6F6EbusinessRuleTask" transform="scale(0.7,0.7) translate(8,8)" display="none"> 		<rect id="_39A53118-4C70-41F9-A6F3-FAA30F7C6F6Eframe6" oryx:anchors="top left" x="0" y="0" width="22" height="4" style="opacity:1;fill:#B3B1B3;fill-opacity:1;" stroke="#000000"/> 		<rect id="_39A53118-4C70-41F9-A6F3-FAA30F7C6F6Eframe7" oryx:anchors="top left" x="0" y="4" style="opacity:1;fill:none;" width="22" height="12" stroke="#000000"/> 		<path id="_39A53118-4C70-41F9-A6F3-FAA30F7C6F6Eframe8" oryx:anchors="top left" style="opacity:1;fill:none;" d="M 0 10 L 22 10" stroke="#000000"/> 		<path id="_39A53118-4C70-41F9-A6F3-FAA30F7C6F6Eframe9" oryx:anchors="top left" style="opacity:1; fill:none;" d="M 7 4 L 7 16" stroke="#000000"/> 	</g> 	 	<g id="_39A53118-4C70-41F9-A6F3-FAA30F7C6F6EscriptTask" transform="scale(0.7,0.7) translate(8,8)" display="inherit"> 		<path oryx:anchors="top left" id="_39A53118-4C70-41F9-A6F3-FAA30F7C6F6Eframe10" style="opacity:1;fill:none;" stroke="#000000" d="M6.402,0.5h14.5c0,0-5.833,2.833-5.833,5.583s4.417,6,4.417,9.167    s-4.167,5.083-4.167,5.083H0.235c0,0,5-2.667,5-5s-4.583-6.75-4.583-9.25S6.402,0.5,6.402,0.5z"/> 		<path oryx:anchors="top left" id="_39A53118-4C70-41F9-A6F3-FAA30F7C6F6Eframe11" style="opacity:1;fill:none;stroke-width:1.5" d="M 3.5 4.5 L 13.5 4.5" stroke="#000000"/> 		<path oryx:anchors="top left" id="_39A53118-4C70-41F9-A6F3-FAA30F7C6F6Eframe12" style="opacity:1;fill:none;stroke-width:1.5" d="M 3.8 8.5 L 13.8 8.5" stroke="#000000"/> 		<path oryx:anchors="top left" id="_39A53118-4C70-41F9-A6F3-FAA30F7C6F6Eframe13" style="opacity:1;fill:none;stroke-width:1.5" d="M 6.3 12.5 L 16.3 12.5" stroke="#000000"/> 		<path oryx:anchors="top left" id="_39A53118-4C70-41F9-A6F3-FAA30F7C6F6Eframe14" style="opacity:1;fill:none;stroke-width:1.5" d="M 6.5 16.5 L 16.5 16.5" stroke="#000000"/> 	</g> 	 	<g id="_39A53118-4C70-41F9-A6F3-FAA30F7C6F6EuserTask" transform="scale(0.7,0.7) translate(8,8)" display="none"> 		<path id="_39A53118-4C70-41F9-A6F3-FAA30F7C6F6Eframe15" oryx:anchors="top left" style="opacity:1;fill:#F4F6F7" stroke="#000000" d="M0.585,24.167h24.083v-7.833c0,0-2.333-3.917-7.083-5.167h-9.25    c-4.417,1.333-7.833,5.75-7.833,5.75L0.585,24.167z"/> 		<path id="_39A53118-4C70-41F9-A6F3-FAA30F7C6F6Eframe16" oryx:anchors="top left" style="opacity:1;fill:none" d="M 6 20 L 6 24" stroke="#000000"/> 		<path id="_39A53118-4C70-41F9-A6F3-FAA30F7C6F6Eframe17" oryx:anchors="top left" style="opacity:1;fill:none" d="M 20 20 L 20 24" stroke="#000000"/> 		<circle id="_39A53118-4C70-41F9-A6F3-FAA30F7C6F6Eframe18" oryx:anchors="top left" fill="black" cx="13.002" cy="5.916" r="5.417" stroke="#000000"/> 		<path id="_39A53118-4C70-41F9-A6F3-FAA30F7C6F6Eframe19" oryx:anchors="top left" style="opacity:1;fill:#F0EFF0;" stroke="#000000" d="M8.043,7.083c0,0,2.814-2.426,5.376-1.807s4.624-0.693,4.624-0.693    c0.25,1.688,0.042,3.75-1.458,5.584c0,0,1.083,0.75,1.083,1.5s0.125,1.875-1,3s-5.5,1.25-6.75,0S8.668,12.834,8.668,12    s0.583-1.25,1.25-1.917C8.835,9.5,7.419,7.708,8.043,7.083z"/> 	</g> 	 	<g id="_39A53118-4C70-41F9-A6F3-FAA30F7C6F6EserviceTask" transform="scale(0.7,0.7) translate(8,8)" display="none"> 		<polygon oryx:anchors="top left" id="_39A53118-4C70-41F9-A6F3-FAA30F7C6F6Eframe20" style="opacity:1;fill:#ffffff" stroke="#000000" points="15.392,5.064 17.954,2.502 20.347,4.895 17.786,7.455     18.729,9.732 22.353,9.732 22.353,13.115 18.731,13.115 17.788,15.392 20.351,17.955 17.958,20.347 15.397,17.786 13.12,18.729     13.12,22.353 9.737,22.353 9.737,18.731 7.46,17.788 4.897,20.35 2.506,17.958 5.066,15.397 4.124,13.12 0.5,13.12 0.5,9.737     4.121,9.737 5.065,7.461 2.503,4.898 4.895,2.506 7.455,5.066 9.732,4.125 9.732,0.5 13.116,0.5 13.116,4.121 "/> 		<circle oryx:anchors="top left" id="_39A53118-4C70-41F9-A6F3-FAA30F7C6F6Eframe21" style="opacity:1;fill:none" stroke="#000000" cx="11.427" cy="11.426" r="3.714"/> 		<polygon oryx:anchors="top left" id="_39A53118-4C70-41F9-A6F3-FAA30F7C6F6Eframe22" style="opacity:1;fill:#ffffff" stroke="#000000" points="21.392,11.064 23.954,8.502 26.347,10.895 23.786,13.455     24.729,15.732 28.353,15.732 28.353,19.115 24.731,19.115 23.788,21.392 26.351,23.955 23.958,26.347 21.397,23.786 19.12,24.729     19.12,28.353 15.737,28.353 15.737,24.731 13.46,23.788 10.897,26.35 8.506,23.958 11.066,21.397 10.124,19.12 6.5,19.12     6.5,15.737 10.121,15.737 11.065,13.461 8.503,10.898 10.895,8.506 13.455,11.066 15.732,10.125 15.732,6.5 19.116,6.5     19.116,10.121 "/> 		<circle oryx:anchors="top left" id="_39A53118-4C70-41F9-A6F3-FAA30F7C6F6Eframe23" style="opacity:1;fill:none;" stroke="#000000" cx="17.427" cy="17.426" r="3.714"/> 	</g> 	 	<g id="_39A53118-4C70-41F9-A6F3-FAA30F7C6F6EsendTask" display="none"> 		<path id="_39A53118-4C70-41F9-A6F3-FAA30F7C6F6Estframe24" oryx:anchors="left top" stroke="#FFFFFF" fill="black" stroke-width="1" d="M8,11 L8,21 L24,21 L24,11 L16,17z"/> 		<path id="_39A53118-4C70-41F9-A6F3-FAA30F7C6F6Estframe25" oryx:anchors="left top" stroke="#FFFFFF" fill="black" stroke-width="1" d="M7,10 L16,17 L25 10z"/> 	</g> 	 	<g id="_39A53118-4C70-41F9-A6F3-FAA30F7C6F6EreceiveTask" display="none"> 		<path id="_39A53118-4C70-41F9-A6F3-FAA30F7C6F6Eframe26" oryx:anchors="left top" stroke="#000000" fill="none" stroke-width="1" d="M8,11 L8,21 L24,21 L24,11z M8,11 L16,17 L24,11"/> 	</g> 	 	<g id="_39A53118-4C70-41F9-A6F3-FAA30F7C6F6Enone" display="inherit"/>  	<g id="_39A53118-4C70-41F9-A6F3-FAA30F7C6F6Esequential" display="none">         <path oryx:anchors="bottom" fill="none" stroke="#000000" stroke-width="2" d="M46,76h10M46,72h10 M46,68h10" id="_39A53118-4C70-41F9-A6F3-FAA30F7C6F6E__39A53118-4C70-41F9-A6F3-FAA30F7C6F6E_20"/>     </g>   </g></g><g class="children" style="overflow:hidden"/><g class="edge"/></g><g class="controls"><g class="dockers"/><g class="magnets" transform="translate(510, 131)"><g pointer-events="all" display="none" transform="translate(-7, 12)"><circle cx="8" cy="8" r="4" stroke="none" fill="red" fill-opacity="0.3"/></g><g pointer-events="all" display="none" transform="translate(-7, 32)"><circle cx="8" cy="8" r="4" stroke="none" fill="red" fill-opacity="0.3"/></g><g pointer-events="all" display="none" transform="translate(-7, 52)"><circle cx="8" cy="8" r="4" stroke="none" fill="red" fill-opacity="0.3"/></g><g pointer-events="all" display="none" transform="translate(17, 71)"><circle cx="8" cy="8" r="4" stroke="none" fill="red" fill-opacity="0.3"/></g><g pointer-events="all" display="none" transform="translate(42, 71)"><circle cx="8" cy="8" r="4" stroke="none" fill="red" fill-opacity="0.3"/></g><g pointer-events="all" display="none" transform="translate(67, 71)"><circle cx="8" cy="8" r="4" stroke="none" fill="red" fill-opacity="0.3"/></g><g pointer-events="all" display="none" transform="translate(91, 12)"><circle cx="8" cy="8" r="4" stroke="none" fill="red" fill-opacity="0.3"/></g><g pointer-events="all" display="none" transform="translate(91, 32)"><circle cx="8" cy="8" r="4" stroke="none" fill="red" fill-opacity="0.3"/></g><g pointer-events="all" display="none" transform="translate(91, 52)"><circle cx="8" cy="8" r="4" stroke="none" fill="red" fill-opacity="0.3"/></g><g pointer-events="all" display="none" transform="translate(17, -7)"><circle cx="8" cy="8" r="4" stroke="none" fill="red" fill-opacity="0.3"/></g><g pointer-events="all" display="none" transform="translate(42, -7)"><circle cx="8" cy="8" r="4" stroke="none" fill="red" fill-opacity="0.3"/></g><g pointer-events="all" display="none" transform="translate(67, -7)"><circle cx="8" cy="8" r="4" stroke="none" fill="red" fill-opacity="0.3"/></g><g pointer-events="all" display="none" transform="translate(42, 32)"><circle cx="8" cy="8" r="4" stroke="none" fill="red" fill-opacity="0.3"/></g></g></g></g><g id="_85BFCF85-5CAC-419A-B579-8352D4BAD3B8" bpmn2nodeid="_D037298A-F4F5-4602-A9B3-09B08DC44DCA"><g class="stencils" transform="translate(199, 131)"><g class="me"><g pointer-events="fill" oryx:minimumSize="50 40" id="_85BFCF85-5CAC-419A-B579-8352D4BAD3B8">   	<defs id="_85BFCF85-5CAC-419A-B579-8352D4BAD3B8__85BFCF85-5CAC-419A-B579-8352D4BAD3B8_17"> 		<radialGradient id="_85BFCF85-5CAC-419A-B579-8352D4BAD3B8background" cx="10%" cy="10%" r="100%" fx="10%" fy="10%"> 			<stop offset="0%" stop-color="#ffffff" stop-opacity="1" id="_85BFCF85-5CAC-419A-B579-8352D4BAD3B8__85BFCF85-5CAC-419A-B579-8352D4BAD3B8_18"/> 			<stop id="_85BFCF85-5CAC-419A-B579-8352D4BAD3B8fill_el" offset="100%" stop-color="#fafad2" stop-opacity="1"/> 		</radialGradient> 		<radialGradient id="_85BFCF85-5CAC-419A-B579-8352D4BAD3B8borderbackground" cx="10%" cy="10%" r="100%" fx="10%" fy="10%"> 			<stop offset="0%" stop-color="#ffffff" stop-opacity="1" id="_85BFCF85-5CAC-419A-B579-8352D4BAD3B8__85BFCF85-5CAC-419A-B579-8352D4BAD3B8_19"/> 			<stop id="_85BFCF85-5CAC-419A-B579-8352D4BAD3B8fill_border" offset="100%" stop-color="#000000" stop-opacity="1" stroke="#000000"/> 		</radialGradient> 	</defs> 	 	<rect id="_85BFCF85-5CAC-419A-B579-8352D4BAD3B8text_frame" oryx:anchors="bottom top right left" x="1" y="1" width="94" height="79" rx="10" ry="10" stroke="none" stroke-width="0" fill="none"/> 	<rect id="_85BFCF85-5CAC-419A-B579-8352D4BAD3B8bg_frame" oryx:resize="vertical horizontal" x="0" y="0" width="100" height="80" rx="10" ry="10" stroke="#000000" stroke-width="1" fill="url(#_85BFCF85-5CAC-419A-B579-8352D4BAD3B8background) #ffffcc"/> 		<text font-size="12" id="_85BFCF85-5CAC-419A-B579-8352D4BAD3B8text_name" x="50" y="40" oryx:align="middle center" oryx:fittoelem="text_frame" stroke="black" text-anchor="middle" stroke-width="0pt" letter-spacing="-0.01px" fill="#000000" transform="rotate(0 50 40)" visibility="inherit" oryx:fontSize="12"><tspan x="50" y="40" dy="5">beginNode_v1</tspan></text>     <g id="_85BFCF85-5CAC-419A-B579-8352D4BAD3B8manualTask" transform="scale(0.7,0.7) translate(8,8)" display="none">     	<path oryx:anchors="top left" id="_85BFCF85-5CAC-419A-B579-8352D4BAD3B8frame" style="opacity:1;fill:none;fill-opacity:1;stroke-width:1" d="M0.5,3.751l4.083-3.25c0,0,11.166,0.083,12.083,0.083s-2.417,2.917-1.5,2.917     s11.667,0,12.584,0c1.166,1.708-0.168,3.167-0.834,3.667s0.875,1.917-1,4.417c-0.75,0.25,0.75,1.875-1.333,3.333     c-1.167,0.583,0.583,1.542-1.25,2.833c-1.167,0-20.833,0.083-20.833,0.083l-2-1.333V3.751z" stroke="#000000"/> 		<path id="_85BFCF85-5CAC-419A-B579-8352D4BAD3B8frame2" oryx:anchors="top left" style="opacity:1;fill:none;stroke-width:2" d="M 13.5 7 L 27 7" stroke="#000000"/> 		<path id="_85BFCF85-5CAC-419A-B579-8352D4BAD3B8frame3" oryx:anchors="top left" style="opacity:1;fill:none;stroke-width:2" d="M 13.5 11 L 26 11" stroke="#000000"/> 		<path id="_85BFCF85-5CAC-419A-B579-8352D4BAD3B8frame4" oryx:anchors="top left" style="opacity:1;fill:none;stroke-width:1.5" d="M 14 14.5 L 25 14.5" stroke="#000000"/> 		<path id="_85BFCF85-5CAC-419A-B579-8352D4BAD3B8frame5" oryx:anchors="top left" style="opacity:1;fill:none;stroke-width:1.5" d="M 8.2 3.1 L 15 3.1" stroke="#000000"/> 	</g> 	 	<g id="_85BFCF85-5CAC-419A-B579-8352D4BAD3B8businessRuleTask" transform="scale(0.7,0.7) translate(8,8)" display="none"> 		<rect id="_85BFCF85-5CAC-419A-B579-8352D4BAD3B8frame6" oryx:anchors="top left" x="0" y="0" width="22" height="4" style="opacity:1;fill:#B3B1B3;fill-opacity:1;" stroke="#000000"/> 		<rect id="_85BFCF85-5CAC-419A-B579-8352D4BAD3B8frame7" oryx:anchors="top left" x="0" y="4" style="opacity:1;fill:none;" width="22" height="12" stroke="#000000"/> 		<path id="_85BFCF85-5CAC-419A-B579-8352D4BAD3B8frame8" oryx:anchors="top left" style="opacity:1;fill:none;" d="M 0 10 L 22 10" stroke="#000000"/> 		<path id="_85BFCF85-5CAC-419A-B579-8352D4BAD3B8frame9" oryx:anchors="top left" style="opacity:1; fill:none;" d="M 7 4 L 7 16" stroke="#000000"/> 	</g> 	 	<g id="_85BFCF85-5CAC-419A-B579-8352D4BAD3B8scriptTask" transform="scale(0.7,0.7) translate(8,8)" display="inherit"> 		<path oryx:anchors="top left" id="_85BFCF85-5CAC-419A-B579-8352D4BAD3B8frame10" style="opacity:1;fill:none;" stroke="#000000" d="M6.402,0.5h14.5c0,0-5.833,2.833-5.833,5.583s4.417,6,4.417,9.167    s-4.167,5.083-4.167,5.083H0.235c0,0,5-2.667,5-5s-4.583-6.75-4.583-9.25S6.402,0.5,6.402,0.5z"/> 		<path oryx:anchors="top left" id="_85BFCF85-5CAC-419A-B579-8352D4BAD3B8frame11" style="opacity:1;fill:none;stroke-width:1.5" d="M 3.5 4.5 L 13.5 4.5" stroke="#000000"/> 		<path oryx:anchors="top left" id="_85BFCF85-5CAC-419A-B579-8352D4BAD3B8frame12" style="opacity:1;fill:none;stroke-width:1.5" d="M 3.8 8.5 L 13.8 8.5" stroke="#000000"/> 		<path oryx:anchors="top left" id="_85BFCF85-5CAC-419A-B579-8352D4BAD3B8frame13" style="opacity:1;fill:none;stroke-width:1.5" d="M 6.3 12.5 L 16.3 12.5" stroke="#000000"/> 		<path oryx:anchors="top left" id="_85BFCF85-5CAC-419A-B579-8352D4BAD3B8frame14" style="opacity:1;fill:none;stroke-width:1.5" d="M 6.5 16.5 L 16.5 16.5" stroke="#000000"/> 	</g> 	 	<g id="_85BFCF85-5CAC-419A-B579-8352D4BAD3B8userTask" transform="scale(0.7,0.7) translate(8,8)" display="none"> 		<path id="_85BFCF85-5CAC-419A-B579-8352D4BAD3B8frame15" oryx:anchors="top left" style="opacity:1;fill:#F4F6F7" stroke="#000000" d="M0.585,24.167h24.083v-7.833c0,0-2.333-3.917-7.083-5.167h-9.25    c-4.417,1.333-7.833,5.75-7.833,5.75L0.585,24.167z"/> 		<path id="_85BFCF85-5CAC-419A-B579-8352D4BAD3B8frame16" oryx:anchors="top left" style="opacity:1;fill:none" d="M 6 20 L 6 24" stroke="#000000"/> 		<path id="_85BFCF85-5CAC-419A-B579-8352D4BAD3B8frame17" oryx:anchors="top left" style="opacity:1;fill:none" d="M 20 20 L 20 24" stroke="#000000"/> 		<circle id="_85BFCF85-5CAC-419A-B579-8352D4BAD3B8frame18" oryx:anchors="top left" fill="black" cx="13.002" cy="5.916" r="5.417" stroke="#000000"/> 		<path id="_85BFCF85-5CAC-419A-B579-8352D4BAD3B8frame19" oryx:anchors="top left" style="opacity:1;fill:#F0EFF0;" stroke="#000000" d="M8.043,7.083c0,0,2.814-2.426,5.376-1.807s4.624-0.693,4.624-0.693    c0.25,1.688,0.042,3.75-1.458,5.584c0,0,1.083,0.75,1.083,1.5s0.125,1.875-1,3s-5.5,1.25-6.75,0S8.668,12.834,8.668,12    s0.583-1.25,1.25-1.917C8.835,9.5,7.419,7.708,8.043,7.083z"/> 	</g> 	 	<g id="_85BFCF85-5CAC-419A-B579-8352D4BAD3B8serviceTask" transform="scale(0.7,0.7) translate(8,8)" display="none"> 		<polygon oryx:anchors="top left" id="_85BFCF85-5CAC-419A-B579-8352D4BAD3B8frame20" style="opacity:1;fill:#ffffff" stroke="#000000" points="15.392,5.064 17.954,2.502 20.347,4.895 17.786,7.455     18.729,9.732 22.353,9.732 22.353,13.115 18.731,13.115 17.788,15.392 20.351,17.955 17.958,20.347 15.397,17.786 13.12,18.729     13.12,22.353 9.737,22.353 9.737,18.731 7.46,17.788 4.897,20.35 2.506,17.958 5.066,15.397 4.124,13.12 0.5,13.12 0.5,9.737     4.121,9.737 5.065,7.461 2.503,4.898 4.895,2.506 7.455,5.066 9.732,4.125 9.732,0.5 13.116,0.5 13.116,4.121 "/> 		<circle oryx:anchors="top left" id="_85BFCF85-5CAC-419A-B579-8352D4BAD3B8frame21" style="opacity:1;fill:none" stroke="#000000" cx="11.427" cy="11.426" r="3.714"/> 		<polygon oryx:anchors="top left" id="_85BFCF85-5CAC-419A-B579-8352D4BAD3B8frame22" style="opacity:1;fill:#ffffff" stroke="#000000" points="21.392,11.064 23.954,8.502 26.347,10.895 23.786,13.455     24.729,15.732 28.353,15.732 28.353,19.115 24.731,19.115 23.788,21.392 26.351,23.955 23.958,26.347 21.397,23.786 19.12,24.729     19.12,28.353 15.737,28.353 15.737,24.731 13.46,23.788 10.897,26.35 8.506,23.958 11.066,21.397 10.124,19.12 6.5,19.12     6.5,15.737 10.121,15.737 11.065,13.461 8.503,10.898 10.895,8.506 13.455,11.066 15.732,10.125 15.732,6.5 19.116,6.5     19.116,10.121 "/> 		<circle oryx:anchors="top left" id="_85BFCF85-5CAC-419A-B579-8352D4BAD3B8frame23" style="opacity:1;fill:none;" stroke="#000000" cx="17.427" cy="17.426" r="3.714"/> 	</g> 	 	<g id="_85BFCF85-5CAC-419A-B579-8352D4BAD3B8sendTask" display="none"> 		<path id="_85BFCF85-5CAC-419A-B579-8352D4BAD3B8stframe24" oryx:anchors="left top" stroke="#FFFFFF" fill="black" stroke-width="1" d="M8,11 L8,21 L24,21 L24,11 L16,17z"/> 		<path id="_85BFCF85-5CAC-419A-B579-8352D4BAD3B8stframe25" oryx:anchors="left top" stroke="#FFFFFF" fill="black" stroke-width="1" d="M7,10 L16,17 L25 10z"/> 	</g> 	 	<g id="_85BFCF85-5CAC-419A-B579-8352D4BAD3B8receiveTask" display="none"> 		<path id="_85BFCF85-5CAC-419A-B579-8352D4BAD3B8frame26" oryx:anchors="left top" stroke="#000000" fill="none" stroke-width="1" d="M8,11 L8,21 L24,21 L24,11z M8,11 L16,17 L24,11"/> 	</g> 	 	<g id="_85BFCF85-5CAC-419A-B579-8352D4BAD3B8none" display="inherit"/>  	<g id="_85BFCF85-5CAC-419A-B579-8352D4BAD3B8sequential" display="none">         <path oryx:anchors="bottom" fill="none" stroke="#000000" stroke-width="2" d="M46,76h10M46,72h10 M46,68h10" id="_85BFCF85-5CAC-419A-B579-8352D4BAD3B8__85BFCF85-5CAC-419A-B579-8352D4BAD3B8_20"/>     </g>   </g></g><g class="children" style="overflow:hidden"/><g class="edge"/></g><g class="controls"><g class="dockers"/><g class="magnets" transform="translate(199, 131)"><g pointer-events="all" display="none" transform="translate(-7, 12)"><circle cx="8" cy="8" r="4" stroke="none" fill="red" fill-opacity="0.3"/></g><g pointer-events="all" display="none" transform="translate(-7, 32)"><circle cx="8" cy="8" r="4" stroke="none" fill="red" fill-opacity="0.3"/></g><g pointer-events="all" display="none" transform="translate(-7, 52)"><circle cx="8" cy="8" r="4" stroke="none" fill="red" fill-opacity="0.3"/></g><g pointer-events="all" display="none" transform="translate(17, 71)"><circle cx="8" cy="8" r="4" stroke="none" fill="red" fill-opacity="0.3"/></g><g pointer-events="all" display="none" transform="translate(42, 71)"><circle cx="8" cy="8" r="4" stroke="none" fill="red" fill-opacity="0.3"/></g><g pointer-events="all" display="none" transform="translate(67, 71)"><circle cx="8" cy="8" r="4" stroke="none" fill="red" fill-opacity="0.3"/></g><g pointer-events="all" display="none" transform="translate(91, 12)"><circle cx="8" cy="8" r="4" stroke="none" fill="red" fill-opacity="0.3"/></g><g pointer-events="all" display="none" transform="translate(91, 32)"><circle cx="8" cy="8" r="4" stroke="none" fill="red" fill-opacity="0.3"/></g><g pointer-events="all" display="none" transform="translate(91, 52)"><circle cx="8" cy="8" r="4" stroke="none" fill="red" fill-opacity="0.3"/></g><g pointer-events="all" display="none" transform="translate(17, -7)"><circle cx="8" cy="8" r="4" stroke="none" fill="red" fill-opacity="0.3"/></g><g pointer-events="all" display="none" transform="translate(42, -7)"><circle cx="8" cy="8" r="4" stroke="none" fill="red" fill-opacity="0.3"/></g><g pointer-events="all" display="none" transform="translate(67, -7)"><circle cx="8" cy="8" r="4" stroke="none" fill="red" fill-opacity="0.3"/></g><g pointer-events="all" display="none" transform="translate(42, 32)"><circle cx="8" cy="8" r="4" stroke="none" fill="red" fill-opacity="0.3"/></g></g></g></g><g id="_886B8872-12D5-4AD5-8B2E-4B00B10B7416" bpmn2nodeid="_148CB1E1-4134-47B6-9452-FADE9AB7756F"><g class="stencils" transform="translate(345, 131)"><g class="me"><g pointer-events="fill" oryx:minimumSize="50 40" id="_886B8872-12D5-4AD5-8B2E-4B00B10B7416">   	<defs id="_886B8872-12D5-4AD5-8B2E-4B00B10B7416__886B8872-12D5-4AD5-8B2E-4B00B10B7416_17"> 		<radialGradient id="_886B8872-12D5-4AD5-8B2E-4B00B10B7416background" cx="10%" cy="10%" r="100%" fx="10%" fy="10%"> 			<stop offset="0%" stop-color="#ffffff" stop-opacity="1" id="_886B8872-12D5-4AD5-8B2E-4B00B10B7416__886B8872-12D5-4AD5-8B2E-4B00B10B7416_18"/> 			<stop id="_886B8872-12D5-4AD5-8B2E-4B00B10B7416fill_el" offset="100%" stop-color="#fafad2" stop-opacity="1"/> 		</radialGradient> 		<radialGradient id="_886B8872-12D5-4AD5-8B2E-4B00B10B7416borderbackground" cx="10%" cy="10%" r="100%" fx="10%" fy="10%"> 			<stop offset="0%" stop-color="#ffffff" stop-opacity="1" id="_886B8872-12D5-4AD5-8B2E-4B00B10B7416__886B8872-12D5-4AD5-8B2E-4B00B10B7416_19"/> 			<stop id="_886B8872-12D5-4AD5-8B2E-4B00B10B7416fill_border" offset="100%" stop-color="#000000" stop-opacity="1" stroke="#000000"/> 		</radialGradient> 	</defs> 	 	<rect id="_886B8872-12D5-4AD5-8B2E-4B00B10B7416text_frame" oryx:anchors="bottom top right left" x="1" y="1" width="94" height="79" rx="10" ry="10" stroke="none" stroke-width="0" fill="none"/> 	<rect id="_886B8872-12D5-4AD5-8B2E-4B00B10B7416bg_frame" oryx:resize="vertical horizontal" x="0" y="0" width="100" height="80" rx="10" ry="10" stroke="#000000" stroke-width="1" fill="url(#_886B8872-12D5-4AD5-8B2E-4B00B10B7416background) #ffffcc"/> 		<text font-size="12" id="_886B8872-12D5-4AD5-8B2E-4B00B10B7416text_name" x="50" y="40" oryx:align="middle center" oryx:fittoelem="text_frame" stroke="black" text-anchor="middle" stroke-width="0pt" letter-spacing="-0.01px" fill="#000000" transform="rotate(0 50 40)" visibility="inherit" oryx:fontSize="12"><tspan x="50" y="40" dy="5" id="ext-gen674">userInput1</tspan></text>     <g id="_886B8872-12D5-4AD5-8B2E-4B00B10B7416manualTask" transform="scale(0.7,0.7) translate(8,8)" display="none">     	<path oryx:anchors="top left" id="_886B8872-12D5-4AD5-8B2E-4B00B10B7416frame" style="opacity:1;fill:none;fill-opacity:1;stroke-width:1" d="M0.5,3.751l4.083-3.25c0,0,11.166,0.083,12.083,0.083s-2.417,2.917-1.5,2.917     s11.667,0,12.584,0c1.166,1.708-0.168,3.167-0.834,3.667s0.875,1.917-1,4.417c-0.75,0.25,0.75,1.875-1.333,3.333     c-1.167,0.583,0.583,1.542-1.25,2.833c-1.167,0-20.833,0.083-20.833,0.083l-2-1.333V3.751z" stroke="#000000"/> 		<path id="_886B8872-12D5-4AD5-8B2E-4B00B10B7416frame2" oryx:anchors="top left" style="opacity:1;fill:none;stroke-width:2" d="M 13.5 7 L 27 7" stroke="#000000"/> 		<path id="_886B8872-12D5-4AD5-8B2E-4B00B10B7416frame3" oryx:anchors="top left" style="opacity:1;fill:none;stroke-width:2" d="M 13.5 11 L 26 11" stroke="#000000"/> 		<path id="_886B8872-12D5-4AD5-8B2E-4B00B10B7416frame4" oryx:anchors="top left" style="opacity:1;fill:none;stroke-width:1.5" d="M 14 14.5 L 25 14.5" stroke="#000000"/> 		<path id="_886B8872-12D5-4AD5-8B2E-4B00B10B7416frame5" oryx:anchors="top left" style="opacity:1;fill:none;stroke-width:1.5" d="M 8.2 3.1 L 15 3.1" stroke="#000000"/> 	</g> 	 	<g id="_886B8872-12D5-4AD5-8B2E-4B00B10B7416businessRuleTask" transform="scale(0.7,0.7) translate(8,8)" display="none"> 		<rect id="_886B8872-12D5-4AD5-8B2E-4B00B10B7416frame6" oryx:anchors="top left" x="0" y="0" width="22" height="4" style="opacity:1;fill:#B3B1B3;fill-opacity:1;" stroke="#000000"/> 		<rect id="_886B8872-12D5-4AD5-8B2E-4B00B10B7416frame7" oryx:anchors="top left" x="0" y="4" style="opacity:1;fill:none;" width="22" height="12" stroke="#000000"/> 		<path id="_886B8872-12D5-4AD5-8B2E-4B00B10B7416frame8" oryx:anchors="top left" style="opacity:1;fill:none;" d="M 0 10 L 22 10" stroke="#000000"/> 		<path id="_886B8872-12D5-4AD5-8B2E-4B00B10B7416frame9" oryx:anchors="top left" style="opacity:1; fill:none;" d="M 7 4 L 7 16" stroke="#000000"/> 	</g> 	 	<g id="_886B8872-12D5-4AD5-8B2E-4B00B10B7416scriptTask" transform="scale(0.7,0.7) translate(8,8)" display="none"> 		<path oryx:anchors="top left" id="_886B8872-12D5-4AD5-8B2E-4B00B10B7416frame10" style="opacity:1;fill:none;" stroke="#000000" d="M6.402,0.5h14.5c0,0-5.833,2.833-5.833,5.583s4.417,6,4.417,9.167    s-4.167,5.083-4.167,5.083H0.235c0,0,5-2.667,5-5s-4.583-6.75-4.583-9.25S6.402,0.5,6.402,0.5z"/> 		<path oryx:anchors="top left" id="_886B8872-12D5-4AD5-8B2E-4B00B10B7416frame11" style="opacity:1;fill:none;stroke-width:1.5" d="M 3.5 4.5 L 13.5 4.5" stroke="#000000"/> 		<path oryx:anchors="top left" id="_886B8872-12D5-4AD5-8B2E-4B00B10B7416frame12" style="opacity:1;fill:none;stroke-width:1.5" d="M 3.8 8.5 L 13.8 8.5" stroke="#000000"/> 		<path oryx:anchors="top left" id="_886B8872-12D5-4AD5-8B2E-4B00B10B7416frame13" style="opacity:1;fill:none;stroke-width:1.5" d="M 6.3 12.5 L 16.3 12.5" stroke="#000000"/> 		<path oryx:anchors="top left" id="_886B8872-12D5-4AD5-8B2E-4B00B10B7416frame14" style="opacity:1;fill:none;stroke-width:1.5" d="M 6.5 16.5 L 16.5 16.5" stroke="#000000"/> 	</g> 	 	<g id="_886B8872-12D5-4AD5-8B2E-4B00B10B7416userTask" transform="scale(0.7,0.7) translate(8,8)" display="inherit"> 		<path id="_886B8872-12D5-4AD5-8B2E-4B00B10B7416frame15" oryx:anchors="top left" style="opacity:1;fill:#F4F6F7" stroke="#000000" d="M0.585,24.167h24.083v-7.833c0,0-2.333-3.917-7.083-5.167h-9.25    c-4.417,1.333-7.833,5.75-7.833,5.75L0.585,24.167z"/> 		<path id="_886B8872-12D5-4AD5-8B2E-4B00B10B7416frame16" oryx:anchors="top left" style="opacity:1;fill:none" d="M 6 20 L 6 24" stroke="#000000"/> 		<path id="_886B8872-12D5-4AD5-8B2E-4B00B10B7416frame17" oryx:anchors="top left" style="opacity:1;fill:none" d="M 20 20 L 20 24" stroke="#000000"/> 		<circle id="_886B8872-12D5-4AD5-8B2E-4B00B10B7416frame18" oryx:anchors="top left" fill="black" cx="13.002" cy="5.916" r="5.417" stroke="#000000"/> 		<path id="_886B8872-12D5-4AD5-8B2E-4B00B10B7416frame19" oryx:anchors="top left" style="opacity:1;fill:#F0EFF0;" stroke="#000000" d="M8.043,7.083c0,0,2.814-2.426,5.376-1.807s4.624-0.693,4.624-0.693    c0.25,1.688,0.042,3.75-1.458,5.584c0,0,1.083,0.75,1.083,1.5s0.125,1.875-1,3s-5.5,1.25-6.75,0S8.668,12.834,8.668,12    s0.583-1.25,1.25-1.917C8.835,9.5,7.419,7.708,8.043,7.083z"/> 	</g> 	 	<g id="_886B8872-12D5-4AD5-8B2E-4B00B10B7416serviceTask" transform="scale(0.7,0.7) translate(8,8)" display="none"> 		<polygon oryx:anchors="top left" id="_886B8872-12D5-4AD5-8B2E-4B00B10B7416frame20" style="opacity:1;fill:#ffffff" stroke="#000000" points="15.392,5.064 17.954,2.502 20.347,4.895 17.786,7.455     18.729,9.732 22.353,9.732 22.353,13.115 18.731,13.115 17.788,15.392 20.351,17.955 17.958,20.347 15.397,17.786 13.12,18.729     13.12,22.353 9.737,22.353 9.737,18.731 7.46,17.788 4.897,20.35 2.506,17.958 5.066,15.397 4.124,13.12 0.5,13.12 0.5,9.737     4.121,9.737 5.065,7.461 2.503,4.898 4.895,2.506 7.455,5.066 9.732,4.125 9.732,0.5 13.116,0.5 13.116,4.121 "/> 		<circle oryx:anchors="top left" id="_886B8872-12D5-4AD5-8B2E-4B00B10B7416frame21" style="opacity:1;fill:none" stroke="#000000" cx="11.427" cy="11.426" r="3.714"/> 		<polygon oryx:anchors="top left" id="_886B8872-12D5-4AD5-8B2E-4B00B10B7416frame22" style="opacity:1;fill:#ffffff" stroke="#000000" points="21.392,11.064 23.954,8.502 26.347,10.895 23.786,13.455     24.729,15.732 28.353,15.732 28.353,19.115 24.731,19.115 23.788,21.392 26.351,23.955 23.958,26.347 21.397,23.786 19.12,24.729     19.12,28.353 15.737,28.353 15.737,24.731 13.46,23.788 10.897,26.35 8.506,23.958 11.066,21.397 10.124,19.12 6.5,19.12     6.5,15.737 10.121,15.737 11.065,13.461 8.503,10.898 10.895,8.506 13.455,11.066 15.732,10.125 15.732,6.5 19.116,6.5     19.116,10.121 "/> 		<circle oryx:anchors="top left" id="_886B8872-12D5-4AD5-8B2E-4B00B10B7416frame23" style="opacity:1;fill:none;" stroke="#000000" cx="17.427" cy="17.426" r="3.714"/> 	</g> 	 	<g id="_886B8872-12D5-4AD5-8B2E-4B00B10B7416sendTask" display="none"> 		<path id="_886B8872-12D5-4AD5-8B2E-4B00B10B7416stframe24" oryx:anchors="left top" stroke="#FFFFFF" fill="black" stroke-width="1" d="M8,11 L8,21 L24,21 L24,11 L16,17z"/> 		<path id="_886B8872-12D5-4AD5-8B2E-4B00B10B7416stframe25" oryx:anchors="left top" stroke="#FFFFFF" fill="black" stroke-width="1" d="M7,10 L16,17 L25 10z"/> 	</g> 	 	<g id="_886B8872-12D5-4AD5-8B2E-4B00B10B7416receiveTask" display="none"> 		<path id="_886B8872-12D5-4AD5-8B2E-4B00B10B7416frame26" oryx:anchors="left top" stroke="#000000" fill="none" stroke-width="1" d="M8,11 L8,21 L24,21 L24,11z M8,11 L16,17 L24,11"/> 	</g> 	 	<g id="_886B8872-12D5-4AD5-8B2E-4B00B10B7416none" display="none"/>  	<g id="_886B8872-12D5-4AD5-8B2E-4B00B10B7416sequential" display="none">         <path oryx:anchors="bottom" fill="none" stroke="#000000" stroke-width="2" d="M46,76h10M46,72h10 M46,68h10" id="_886B8872-12D5-4AD5-8B2E-4B00B10B7416__886B8872-12D5-4AD5-8B2E-4B00B10B7416_20"/>     </g>   </g></g><g class="children" style="overflow:hidden"/><g class="edge"/></g><g class="controls"><g class="dockers"/><g class="magnets" transform="translate(345, 131)"><g pointer-events="all" display="none" transform="translate(-7, 12)"><circle cx="8" cy="8" r="4" stroke="none" fill="red" fill-opacity="0.3"/></g><g pointer-events="all" display="none" transform="translate(-7, 32)"><circle cx="8" cy="8" r="4" stroke="none" fill="red" fill-opacity="0.3"/></g><g pointer-events="all" display="none" transform="translate(-7, 52)"><circle cx="8" cy="8" r="4" stroke="none" fill="red" fill-opacity="0.3"/></g><g pointer-events="all" display="none" transform="translate(17, 71)"><circle cx="8" cy="8" r="4" stroke="none" fill="red" fill-opacity="0.3"/></g><g pointer-events="all" display="none" transform="translate(42, 71)"><circle cx="8" cy="8" r="4" stroke="none" fill="red" fill-opacity="0.3"/></g><g pointer-events="all" display="none" transform="translate(67, 71)"><circle cx="8" cy="8" r="4" stroke="none" fill="red" fill-opacity="0.3"/></g><g pointer-events="all" display="none" transform="translate(91, 12)"><circle cx="8" cy="8" r="4" stroke="none" fill="red" fill-opacity="0.3"/></g><g pointer-events="all" display="none" transform="translate(91, 32)"><circle cx="8" cy="8" r="4" stroke="none" fill="red" fill-opacity="0.3"/></g><g pointer-events="all" display="none" transform="translate(91, 52)"><circle cx="8" cy="8" r="4" stroke="none" fill="red" fill-opacity="0.3"/></g><g pointer-events="all" display="none" transform="translate(17, -7)"><circle cx="8" cy="8" r="4" stroke="none" fill="red" fill-opacity="0.3"/></g><g pointer-events="all" display="none" transform="translate(42, -7)"><circle cx="8" cy="8" r="4" stroke="none" fill="red" fill-opacity="0.3"/></g><g pointer-events="all" display="none" transform="translate(67, -7)"><circle cx="8" cy="8" r="4" stroke="none" fill="red" fill-opacity="0.3"/></g><g pointer-events="all" display="none" transform="translate(42, 32)"><circle cx="8" cy="8" r="4" stroke="none" fill="red" fill-opacity="0.3"/></g></g></g></g></g><g class="edge"><g id="_C8C262EB-5C33-4923-89E2-A81261726C4E" bpmn2nodeid="_6270620F-C248-427D-B8DB-1FB0903BB703"><g class="stencils"><g class="me"><g pointer-events="painted" bpmn2nodeid="_0DB3F3A8-658A-4EA2-AF99-D429DEACDF6D"><path id="_C8C262EB-5C33-4923-89E2-A81261726C4E_1" d="M610.3828125 171L674.8984375 171 " stroke="#000000" fill="none" stroke-width="2" stroke-linecap="round" stroke-linejoin="round" marker-start="url(#_C8C262EB-5C33-4923-89E2-A81261726C4Estart)" marker-end="url(#_C8C262EB-5C33-4923-89E2-A81261726C4Eend)"/></g><text id="_C8C262EB-5C33-4923-89E2-A81261726C4Etext_name" font-size="12" x="624.3828125" y="157" oryx:edgePosition="startTop" stroke-width="0pt" letter-spacing="-0.01px" fill="#000000" text-anchor="start" transform="rotate(360 610.3828125 171)" visibility="inherit" oryx:fontSize="12"/></g><g class="children" style="overflow:hidden"/><g class="edge"/></g><g class="controls"><g class="dockers"/><g class="magnets"/></g></g><g id="_29B51CF9-7134-45AC-A5F7-3B0CF2E3793D" bpmn2nodeid="_8E044587-2182-4234-8835-93B4228B411C"><g class="stencils"><g class="me"><g pointer-events="painted" bpmn2nodeid="_8818FAA5-5E7E-4CED-9705-26DCC9339AA2"><path id="_29B51CF9-7134-45AC-A5F7-3B0CF2E3793D_1" d="M135.109375 171L198.6171875 171 " stroke="#000000" fill="none" stroke-width="2" stroke-linecap="round" stroke-linejoin="round" marker-start="url(#_29B51CF9-7134-45AC-A5F7-3B0CF2E3793Dstart)" marker-end="url(#_29B51CF9-7134-45AC-A5F7-3B0CF2E3793Dend)"/></g><text id="_29B51CF9-7134-45AC-A5F7-3B0CF2E3793Dtext_name" font-size="12" x="149.109375" y="157" oryx:edgePosition="startTop" stroke-width="0pt" letter-spacing="-0.01px" fill="#000000" text-anchor="start" transform="rotate(360 135.109375 171)" visibility="inherit" oryx:fontSize="12"/></g><g class="children" style="overflow:hidden"/><g class="edge"/></g><g class="controls"><g class="dockers"/><g class="magnets"/></g></g><g id="_0C37EE6D-15F5-42DD-A560-2AB38E2FDB51" bpmn2nodeid="_4ED24107-AD5A-45F5-A12F-CFA65D0CC803"><g class="stencils"><g class="me"><g pointer-events="painted" bpmn2nodeid="_B88BEBF5-7396-4126-8D6E-3C785B68F63B"><path id="_0C37EE6D-15F5-42DD-A560-2AB38E2FDB51_1" d="M299.046875 171L344.953125 171 " stroke="#000000" fill="none" stroke-width="2" stroke-linecap="round" stroke-linejoin="round" marker-start="url(#_0C37EE6D-15F5-42DD-A560-2AB38E2FDB51start)" marker-end="url(#_0C37EE6D-15F5-42DD-A560-2AB38E2FDB51end)"/></g><text id="_0C37EE6D-15F5-42DD-A560-2AB38E2FDB51text_name" font-size="12" x="313.046875" y="157" oryx:edgePosition="startTop" stroke-width="0pt" letter-spacing="-0.01px" fill="#000000" text-anchor="start" transform="rotate(360 299.046875 171)" visibility="inherit" oryx:fontSize="12"/></g><g class="children" style="overflow:hidden"/><g class="edge"/></g><g class="controls"><g class="dockers"/><g class="magnets"/></g></g><g id="_0ABE2B67-8499-4CF1-841A-14C337AE6C62" bpmn2nodeid="_21E46984-FBD4-49AD-9DC7-D322C80A3DE8"><g class="stencils"><g class="me"><g pointer-events="painted" bpmn2nodeid="_A7666F1C-DD43-4D2F-9C4C-86A600DCD7E3"><path id="_0ABE2B67-8499-4CF1-841A-14C337AE6C62_1" d="M445.62890625 171L509.37109375 171 " stroke="#000000" fill="none" stroke-width="2" stroke-linecap="round" stroke-linejoin="round" marker-start="url(#_0ABE2B67-8499-4CF1-841A-14C337AE6C62start)" marker-end="url(#_0ABE2B67-8499-4CF1-841A-14C337AE6C62end)"/></g><text id="_0ABE2B67-8499-4CF1-841A-14C337AE6C62text_name" font-size="12" x="459.62890625" y="157" oryx:edgePosition="startTop" stroke-width="0pt" letter-spacing="-0.01px" fill="#000000" text-anchor="start" transform="rotate(360 445.62890625 171)" visibility="inherit" oryx:fontSize="12"/></g><g class="children" style="overflow:hidden"/><g class="edge"/></g><g class="controls"><g class="dockers"/><g class="magnets"/></g></g></g><text id="_D8146C24-DB92-41C9-9D46-4F35388EFCC0" style="stroke-width:1;fill:rgb(177,194,214);font-family:arial;font-weight:bold" font-size="12" onclick="ORYX.Plugins.CanvasTitle.openTextualAnalysis()" onmouseover="ORYX.Plugins.CanvasTitle.addToolTip('_D8146C24-DB92-41C9-9D46-4F35388EFCC0')" transform="translate(10, 20)">HW1 v.1.0 (src.HW1)</text></g></g></svg>